<svg width="20" height="20" viewBox="0 0 20 20" fill="none" xmlns="http://www.w3.org/2000/svg">
<g clip-path="url(#clip0_2540_1720)">
<path d="M17.491 7.49558C17.0792 7.49581 16.6716 7.4146 16.2914 7.25662C15.9112 7.09864 15.5661 6.86702 15.2757 6.57509C14.9854 6.28316 14.7557 5.9367 14.5999 5.55563C14.4441 5.17457 14.3652 4.76644 14.3677 4.35475C13.8292 4.7683 13.1699 4.99346 12.491 4.99558C11.9737 4.99601 11.4643 4.8679 11.0088 4.62276C10.5532 4.37763 10.1657 4.02316 9.88107 3.59118C9.59641 3.15921 9.42357 2.66329 9.37799 2.14798C9.33249 1.63266 9.41566 1.11411 9.62016 0.638916C7.66194 0.71841 5.77801 1.41024 4.23374 2.61696C2.68948 3.82366 1.56271 5.48445 1.01214 7.36535C0.461578 9.24628 0.514974 11.2524 1.16481 13.1014C1.81464 14.9504 3.02816 16.5489 4.63443 17.6718C6.2407 18.7946 8.15876 19.3853 10.1184 19.3604C12.0781 19.3357 13.9806 18.6967 15.558 17.5336C17.1353 16.3704 18.3081 14.7418 18.9109 12.877C19.5137 11.0122 19.5164 9.00528 18.9185 7.13891C18.4783 7.37101 17.9886 7.49337 17.491 7.49558Z" stroke="#2A3E5B" stroke-linecap="round" stroke-linejoin="round"/>
<path d="M6.22754 10.6157C7.26307 10.6157 8.10254 9.7763 8.10254 8.74071C8.10254 7.70519 7.26307 6.86572 6.22754 6.86572C5.19201 6.86572 4.35254 7.70519 4.35254 8.74071C4.35254 9.7763 5.19201 10.6157 6.22754 10.6157Z" stroke="#2A3E5B" stroke-linecap="round" stroke-linejoin="round"/>
<path d="M11.8525 15.6157C12.5428 15.6157 13.1025 15.0561 13.1025 14.3657C13.1025 13.6754 12.5428 13.1157 11.8525 13.1157C11.1621 13.1157 10.6025 13.6754 10.6025 14.3657C10.6025 15.0561 11.1621 15.6157 11.8525 15.6157Z" stroke="#2A3E5B" stroke-linecap="round" stroke-linejoin="round"/>
<path d="M5.91663 14.3657C5.74403 14.3657 5.60413 14.2258 5.60413 14.0532C5.60413 13.8806 5.74403 13.7407 5.91663 13.7407" stroke="#2A3E5B"/>
<path d="M5.91663 14.3657C6.08921 14.3657 6.22913 14.2258 6.22913 14.0532C6.22913 13.8806 6.08921 13.7407 5.91663 13.7407" stroke="#2A3E5B"/>
<path d="M10.9151 8.74071C10.7425 8.74071 10.6026 8.6008 10.6026 8.42821C10.6026 8.25564 10.7425 8.11572 10.9151 8.11572" stroke="#2A3E5B"/>
<path d="M10.9151 8.74071C11.0878 8.74071 11.2276 8.6008 11.2276 8.42821C11.2276 8.25564 11.0878 8.11572 10.9151 8.11572" stroke="#2A3E5B"/>
<path d="M15.9152 11.241C15.7426 11.241 15.6027 11.1011 15.6027 10.9285C15.6027 10.7559 15.7426 10.616 15.9152 10.616" stroke="#2A3E5B"/>
<path d="M15.9152 11.241C16.0877 11.241 16.2277 11.1011 16.2277 10.9285C16.2277 10.7559 16.0877 10.616 15.9152 10.616" stroke="#2A3E5B"/>
</g>
<defs>
<clipPath id="clip0_2540_1720">
<rect width="20" height="20" fill="white"/>
</clipPath>
</defs>
</svg>
